<svg width="40" height="64" viewBox="0 0 40 64" fill="none" xmlns="http://www.w3.org/2000/svg">
<path opacity="0.25" d="M28.3567 30.9462L11.9589 8.03514C10.0911 5.42648 6.45538 6.36077 5.72095 9.64652L1.06506 30.4318C0.643443 32.3161 1.40952 34.2897 2.9101 35.1767L11.6008 40.31C12.3306 40.7404 13.1696 40.8717 13.972 40.6774L26.3346 37.6699C28.9776 37.0243 30.0839 33.3606 28.3611 30.9514L28.3567 30.9462Z" fill="#8C8A93"/>
<path opacity="0.25" d="M31.6796 41.9634L32.2102 47.2961C32.2918 48.1202 32.0606 48.9495 31.58 49.5636L20.9899 63.0531C19.5528 64.8849 16.9187 63.9034 16.6784 61.4417L15.5406 49.9468C15.4273 48.7973 15.9169 47.6793 16.7873 47.1124L27.9849 39.7851C29.5353 38.7721 31.4802 39.9163 31.6796 41.9634Z" fill="#8C8A93"/>
<path d="M36.3491 26.2537L18.7183 1.62107C16.71 -1.18704 12.8022 -0.179265 12.0088 3.35318L7.00384 25.7026C6.5505 27.7286 7.37564 29.8544 8.98503 30.8044L18.3285 36.3262C19.1128 36.7881 20.015 36.9298 20.8763 36.7198L34.1684 33.4866C37.0109 32.7937 38.1986 28.8519 36.3444 26.2642L36.3491 26.2537Z" fill="#08F7AF"/>
<path d="M38.4614 38.8402L39.0327 44.6034C39.1188 45.4957 38.874 46.388 38.3527 47.0494L26.9147 61.62C25.3597 63.5988 22.5171 62.5386 22.2542 59.8827L21.0256 47.4693C20.9032 46.2253 21.4337 45.0181 22.3721 44.404L34.4675 36.4888C36.1449 35.3918 38.2392 36.6305 38.4614 38.8455V38.8402Z" fill="#08F7AF"/>
</svg>
