<svg width="21" height="20" viewBox="0 0 21 20" fill="none" xmlns="http://www.w3.org/2000/svg">
<path d="M10.5 0C10.7652 0 11.0196 0.105357 11.2071 0.292893C11.3946 0.48043 11.5 0.734784 11.5 1V4C11.5 4.26522 11.3946 4.51957 11.2071 4.70711C11.0196 4.89464 10.7652 5 10.5 5C10.2348 5 9.98043 4.89464 9.79289 4.70711C9.60536 4.51957 9.5 4.26522 9.5 4V1C9.5 0.734784 9.60536 0.48043 9.79289 0.292893C9.98043 0.105357 10.2348 0 10.5 0ZM10.5 15C10.7652 15 11.0196 15.1054 11.2071 15.2929C11.3946 15.4804 11.5 15.7348 11.5 16V19C11.5 19.2652 11.3946 19.5196 11.2071 19.7071C11.0196 19.8946 10.7652 20 10.5 20C10.2348 20 9.98043 19.8946 9.79289 19.7071C9.60536 19.5196 9.5 19.2652 9.5 19V16C9.5 15.7348 9.60536 15.4804 9.79289 15.2929C9.98043 15.1054 10.2348 15 10.5 15ZM20.5 10C20.5 10.2652 20.3946 10.5196 20.2071 10.7071C20.0196 10.8946 19.7652 11 19.5 11H16.5C16.2348 11 15.9804 10.8946 15.7929 10.7071C15.6054 10.5196 15.5 10.2652 15.5 10C15.5 9.73478 15.6054 9.48043 15.7929 9.29289C15.9804 9.10536 16.2348 9 16.5 9H19.5C19.7652 9 20.0196 9.10536 20.2071 9.29289C20.3946 9.48043 20.5 9.73478 20.5 10ZM5.5 10C5.5 10.2652 5.39464 10.5196 5.20711 10.7071C5.01957 10.8946 4.76522 11 4.5 11H1.5C1.23478 11 0.98043 10.8946 0.792893 10.7071C0.605357 10.5196 0.5 10.2652 0.5 10C0.5 9.73478 0.605357 9.48043 0.792893 9.29289C0.98043 9.10536 1.23478 9 1.5 9H4.5C4.76522 9 5.01957 9.10536 5.20711 9.29289C5.39464 9.48043 5.5 9.73478 5.5 10ZM17.571 17.071C17.3835 17.2585 17.1292 17.3638 16.864 17.3638C16.5988 17.3638 16.3445 17.2585 16.157 17.071L14.036 14.95C13.8538 14.7614 13.753 14.5088 13.7553 14.2466C13.7576 13.9844 13.8628 13.7336 14.0482 13.5482C14.2336 13.3628 14.4844 13.2576 14.7466 13.2553C15.0088 13.253 15.2614 13.3538 15.45 13.536L17.571 15.656C17.664 15.7489 17.7377 15.8592 17.7881 15.9806C17.8384 16.102 17.8643 16.2321 17.8643 16.3635C17.8643 16.4949 17.8384 16.625 17.7881 16.7464C17.7377 16.8678 17.664 16.9781 17.571 17.071ZM6.964 6.464C6.77647 6.65147 6.52216 6.75679 6.257 6.75679C5.99184 6.75679 5.73753 6.65147 5.55 6.464L3.43 4.344C3.24236 4.15649 3.13689 3.90212 3.1368 3.63685C3.1367 3.37158 3.24199 3.11714 3.4295 2.9295C3.61701 2.74186 3.87138 2.63639 4.13665 2.6363C4.40192 2.6362 4.65636 2.74149 4.844 2.929L6.964 5.05C7.15147 5.23753 7.25679 5.49184 7.25679 5.757C7.25679 6.02216 7.15147 6.27647 6.964 6.464ZM3.43 17.071C3.24253 16.8835 3.13721 16.6292 3.13721 16.364C3.13721 16.0988 3.24253 15.8445 3.43 15.657L5.551 13.536C5.7396 13.3538 5.9922 13.253 6.2544 13.2553C6.5166 13.2576 6.76741 13.3628 6.95282 13.5482C7.13823 13.7336 7.2434 13.9844 7.24567 14.2466C7.24795 14.5088 7.14716 14.7614 6.965 14.95L4.845 17.071C4.75213 17.164 4.64184 17.2377 4.52044 17.2881C4.39904 17.3384 4.26892 17.3643 4.1375 17.3643C4.00608 17.3643 3.87596 17.3384 3.75456 17.2881C3.63316 17.2377 3.52287 17.164 3.43 17.071ZM14.036 6.464C13.8485 6.27647 13.7432 6.02216 13.7432 5.757C13.7432 5.49184 13.8485 5.23753 14.036 5.05L16.156 2.929C16.2488 2.83609 16.3591 2.76238 16.4804 2.71207C16.6017 2.66176 16.7318 2.63584 16.8631 2.6358C16.9945 2.63575 17.1246 2.66158 17.2459 2.7118C17.3673 2.76202 17.4776 2.83566 17.5705 2.9285C17.6634 3.02134 17.7371 3.13158 17.7874 3.25291C17.8377 3.37424 17.8637 3.5043 17.8637 3.63565C17.8637 3.76699 17.8379 3.89707 17.7877 4.01843C17.7375 4.1398 17.6638 4.25009 17.571 4.343L15.45 6.464C15.2625 6.65147 15.0082 6.75679 14.743 6.75679C14.4778 6.75679 14.2235 6.65147 14.036 6.464Z" fill="#8C8A93"/>
</svg>
