<svg width="69" height="19" viewBox="0 0 69 19" fill="none" xmlns="http://www.w3.org/2000/svg">
<path d="M0 18.2313V6.3616H3.57518V18.2313H0ZM3.57518 11.7103L2.07968 10.4891C2.37566 9.10516 2.87416 8.03053 3.57518 7.26526C4.27619 6.5 5.24983 6.11737 6.49608 6.11737C7.04131 6.11737 7.51644 6.20692 7.92147 6.38602C8.34208 6.54885 8.70817 6.80936 9.01973 7.16757L6.89332 9.97625C6.73754 9.79715 6.54281 9.65875 6.30914 9.56106C6.07547 9.46336 5.81064 9.41452 5.51466 9.41452C4.92269 9.41452 4.44755 9.6099 4.08926 10.0007C3.74654 10.3752 3.57518 10.945 3.57518 11.7103Z" fill="#08F7AF"/>
<path d="M13.4615 18.4756C12.4178 18.4756 11.4831 18.2069 10.6574 17.6696C9.84738 17.1323 9.20089 16.3996 8.71797 15.4715C8.25062 14.5434 8.01695 13.4851 8.01695 12.2965C8.01695 11.1079 8.25062 10.0495 8.71797 9.12144C9.20089 8.19335 9.84738 7.46065 10.6574 6.92334C11.4831 6.38602 12.4178 6.11737 13.4615 6.11737C14.2248 6.11737 14.9103 6.27205 15.5178 6.58141C16.1409 6.89077 16.6472 7.32225 17.0367 7.87585C17.4261 8.41316 17.6442 9.03189 17.691 9.73202V14.8609C17.6442 15.5611 17.4261 16.1879 17.0367 16.7415C16.6628 17.2788 16.1643 17.7022 15.5412 18.0115C14.9181 18.3209 14.2248 18.4756 13.4615 18.4756ZM14.1859 15.1052C14.9492 15.1052 15.5646 14.8446 16.0319 14.3236C16.4992 13.7863 16.7329 13.1106 16.7329 12.2965C16.7329 11.7429 16.6239 11.2544 16.4058 10.8311C16.2033 10.4077 15.9073 10.0821 15.5178 9.85414C15.1439 9.60991 14.7078 9.48779 14.2093 9.48779C13.7108 9.48779 13.2668 9.60991 12.8773 9.85414C12.5035 10.0821 12.1997 10.4077 11.966 10.8311C11.7479 11.2544 11.6389 11.7429 11.6389 12.2965C11.6389 12.8338 11.7479 13.3141 11.966 13.7374C12.1841 14.1608 12.4879 14.4946 12.8773 14.7388C13.2668 14.983 13.703 15.1052 14.1859 15.1052ZM16.5927 18.2313V15.0319L17.1302 12.1499L16.5927 9.26798V6.3616H20.0978V18.2313H16.5927Z" fill="#08F7AF"/>
<path d="M28.2232 18.4756C27.4598 18.4756 26.7588 18.3128 26.1201 17.9871C25.4814 17.6452 24.9596 17.1974 24.5545 16.6438C24.1495 16.0739 23.9158 15.4389 23.8535 14.7388V9.73202C23.9158 9.03189 24.1495 8.41316 24.5545 7.87585C24.9596 7.32225 25.4814 6.89077 26.1201 6.58141C26.7588 6.27205 27.4598 6.11737 28.2232 6.11737C29.2981 6.11737 30.2483 6.38602 31.074 6.92334C31.9152 7.46065 32.5695 8.19335 33.0368 9.12144C33.5197 10.0495 33.7612 11.1079 33.7612 12.2965C33.7612 13.4851 33.5197 14.5434 33.0368 15.4715C32.5695 16.3996 31.9152 17.1323 31.074 17.6696C30.2483 18.2069 29.2981 18.4756 28.2232 18.4756ZM27.5923 15.1052C28.0908 15.1052 28.5269 14.983 28.9008 14.7388C29.2903 14.4946 29.594 14.1608 29.8121 13.7374C30.0302 13.3141 30.1393 12.8338 30.1393 12.2965C30.1393 11.7429 30.0302 11.2544 29.8121 10.8311C29.594 10.4077 29.2903 10.0821 28.9008 9.85414C28.5269 9.60991 28.0908 9.48779 27.5923 9.48779C27.0938 9.48779 26.6498 9.60991 26.2603 9.85414C25.8709 10.0821 25.5671 10.4077 25.349 10.8311C25.1465 11.2544 25.0452 11.7429 25.0452 12.2965C25.0452 12.8501 25.1543 13.3385 25.3724 13.7619C25.5905 14.1852 25.8865 14.519 26.2603 14.7632C26.6498 14.9912 27.0938 15.1052 27.5923 15.1052ZM21.6804 18.2313V0.5H25.2555V9.26798L24.6714 12.1499L25.2088 15.0319V18.2313H21.6804Z" fill="#08F7AF"/>
<path d="M41.1856 18.4756C40.4222 18.4756 39.7212 18.3128 39.0825 17.9871C38.4438 17.6452 37.922 17.1974 37.5169 16.6438C37.1119 16.0739 36.8782 15.4389 36.8159 14.7388V9.73202C36.8782 9.03189 37.1119 8.41316 37.5169 7.87585C37.922 7.32225 38.4438 6.89077 39.0825 6.58141C39.7212 6.27205 40.4222 6.11737 41.1856 6.11737C42.2605 6.11737 43.2107 6.38602 44.0364 6.92334C44.8776 7.46065 45.5319 8.19335 45.9992 9.12144C46.4821 10.0495 46.7236 11.1079 46.7236 12.2965C46.7236 13.4851 46.4821 14.5434 45.9992 15.4715C45.5319 16.3996 44.8776 17.1323 44.0364 17.6696C43.2107 18.2069 42.2605 18.4756 41.1856 18.4756ZM40.5547 15.1052C41.0532 15.1052 41.4893 14.983 41.8632 14.7388C42.2527 14.4946 42.5564 14.1608 42.7745 13.7374C42.9926 13.3141 43.1017 12.8338 43.1017 12.2965C43.1017 11.7429 42.9926 11.2544 42.7745 10.8311C42.5564 10.4077 42.2527 10.0821 41.8632 9.85414C41.4893 9.60991 41.0532 9.48779 40.5547 9.48779C40.0562 9.48779 39.6122 9.60991 39.2227 9.85414C38.8333 10.0821 38.5295 10.4077 38.3114 10.8311C38.1089 11.2544 38.0076 11.7429 38.0076 12.2965C38.0076 12.8501 38.1167 13.3385 38.3348 13.7619C38.5529 14.1852 38.8489 14.519 39.2227 14.7632C39.6122 14.9912 40.0562 15.1052 40.5547 15.1052ZM34.6428 18.2313V0.5H38.2179V9.26798L37.6338 12.1499L38.1712 15.0319V18.2313H34.6428Z" fill="#08F7AF"/>
<path d="M47.6052 18.2313V0.5H51.1803V18.2313H47.6052Z" fill="#08F7AF"/>
<path d="M58.3714 18.5C57.1407 18.5 56.0425 18.2395 55.0766 17.7185C54.1264 17.1811 53.3786 16.4403 52.8334 15.4959C52.2881 14.5516 52.0155 13.4851 52.0155 12.2965C52.0155 11.1079 52.2804 10.0495 52.81 9.12144C53.3552 8.17707 54.0874 7.43623 55.0065 6.89891C55.9256 6.3616 56.9616 6.09294 58.1144 6.09294C59.236 6.09294 60.2252 6.34532 61.082 6.85007C61.9388 7.35482 62.6087 8.05495 63.0916 8.95047C63.5901 9.846 63.8393 10.8718 63.8393 12.0278C63.8393 12.2395 63.8237 12.4674 63.7926 12.7117C63.777 12.9396 63.7381 13.2083 63.6758 13.5176L53.8849 13.5421V10.9776L62.1569 10.9532L60.6147 12.0278C60.5991 11.344 60.4978 10.7822 60.3109 10.3426C60.1239 9.8867 59.8435 9.54478 59.4697 9.31682C59.1114 9.07259 58.6674 8.95047 58.1377 8.95047C57.5769 8.95047 57.0862 9.08887 56.6656 9.36567C56.2606 9.62619 55.9412 10.0007 55.7075 10.4891C55.4894 10.9776 55.3804 11.5719 55.3804 12.272C55.3804 12.9722 55.4972 13.5746 55.7309 14.0794C55.9802 14.5678 56.3229 14.9505 56.7591 15.2273C57.2108 15.4878 57.7405 15.618 58.348 15.618C58.9088 15.618 59.4151 15.5204 59.8669 15.325C60.3187 15.1133 60.7159 14.8039 61.0586 14.3969L63.0215 16.4484C62.4607 17.1323 61.783 17.6452 60.9885 17.9871C60.194 18.329 59.3217 18.5 58.3714 18.5Z" fill="#08F7AF"/>
<path d="M66.8736 18.5C66.266 18.5 65.7598 18.2802 65.3547 17.8406C64.9497 17.401 64.7472 16.8718 64.7472 16.2531C64.7472 15.6018 64.9497 15.0645 65.3547 14.6411C65.7598 14.2015 66.266 13.9817 66.8736 13.9817C67.4967 13.9817 68.003 14.2015 68.3925 14.6411C68.7975 15.0645 69 15.6018 69 16.2531C69 16.8718 68.7975 17.401 68.3925 17.8406C68.003 18.2802 67.4967 18.5 66.8736 18.5Z" fill="#08F7AF"/>
</svg>
